<?xml version="1.0" encoding="UTF-8" standalone="no"?>
<!-- Generator: Adobe Illustrator 19.2.1, SVG Export Plug-In . SVG Version: 6.00 Build 0)  -->

<svg
   version="1.1"
   x="0px"
   y="0px"
   viewBox="0 0 138.73776 230.747"
   xml:space="preserve"
   id="svg14"
   sodipodi:docname="PrototypeFund-P-Logo.svg"
   width="138.73772"
   height="230.74699"
   inkscape:version="1.3.2 (091e20ef0f, 2023-11-25)"
   xmlns:inkscape="http://www.inkscape.org/namespaces/inkscape"
   xmlns:sodipodi="http://sodipodi.sourceforge.net/DTD/sodipodi-0.dtd"
   xmlns="http://www.w3.org/2000/svg"
   xmlns:svg="http://www.w3.org/2000/svg"><defs
   id="defs14" /><sodipodi:namedview
   id="namedview14"
   pagecolor="#ffffff"
   bordercolor="#000000"
   borderopacity="0.25"
   inkscape:showpageshadow="2"
   inkscape:pageopacity="0.0"
   inkscape:pagecheckerboard="0"
   inkscape:deskcolor="#d1d1d1"
   inkscape:zoom="1.5918447"
   inkscape:cx="153.28128"
   inkscape:cy="258.81921"
   inkscape:window-width="1920"
   inkscape:window-height="1016"
   inkscape:window-x="1080"
   inkscape:window-y="490"
   inkscape:window-maximized="1"
   inkscape:current-layer="Ebene_2" />
<style
   type="text/css"
   id="style1">
	.st0{fill:#1D1D1B;}
	.st1{fill:#009ACE;}
</style>
<g
   id="Ebene_2"
   style="display:inline">
	<g
   id="g14"
   transform="matrix(0.36331658,0,0,0.36331658,16.044422,17.827136)">
		<g
   id="g9">
			<path
   class="st0"
   d="m 25.2,380.5 h 11.7 c 9.2,0 17,4.6 17,13.7 0,9.7 -8.3,14.1 -17.6,14.1 h -4.8 v 17 h -6.2 z m 6.2,22.6 4.9,-0.1 c 4.1,0 11.1,-1.5 11.1,-8.8 0,-7 -6.8,-8.6 -10.4,-8.6 l -5.6,-0.1 z"
   id="path1" />
			<path
   class="st0"
   d="m 58.6,402.3 c 0,-2.8 -0.1,-5.5 -0.4,-8.1 h 5.6 l 0.3,8.1 h 0.4 c 1.1,-4 4.5,-8.6 9.1,-8.6 1.7,0 3,0.4 4,0.9 v 5.3 c -0.9,-0.4 -2.2,-0.8 -3.5,-0.8 -5.9,0 -9.2,5.8 -9.6,12.4 v 13.8 h -5.9 z"
   id="path2" />
			<path
   class="st0"
   d="m 95,393.3 c 10.7,0 15.3,9.4 15.3,16.4 0,8.3 -5.4,16.6 -15.3,16.6 -9.9,0 -15.6,-7.9 -15.6,-16.6 0,-7.2 4.8,-16.4 15.6,-16.4 z m -0.1,28.6 c 4.8,0 9.3,-3.8 9.3,-12.3 0,-7.9 -4.3,-11.9 -9.3,-11.9 -4,0 -9.4,2.6 -9.4,12 0,6.4 2.9,12.2 9.4,12.2 z"
   id="path3" />
			<path
   class="st0"
   d="m 113,394.1 h 5.1 l 1.1,-9.3 h 4.6 v 9.3 h 8.8 v 4.5 h -8.8 v 17.6 c 0,2.8 1.4,4.5 4.3,4.5 1.7,0 3.7,-0.6 4.5,-0.9 v 4.6 c -1.1,0.7 -3.1,1.6 -5.2,1.6 -6,0 -9.4,-3.6 -9.4,-9.6 v -17.6 h -5 z"
   id="path4" />
			<path
   class="st0"
   d="m 151.3,393.3 c 10.7,0 15.3,9.4 15.3,16.4 0,8.3 -5.4,16.6 -15.3,16.6 -9.9,0 -15.6,-7.9 -15.6,-16.6 0,-7.2 4.9,-16.4 15.6,-16.4 z m -0.1,28.6 c 4.8,0 9.3,-3.8 9.3,-12.3 0,-7.9 -4.3,-11.9 -9.3,-11.9 -4,0 -9.4,2.6 -9.4,12 0,6.4 2.9,12.2 9.4,12.2 z"
   id="path5" />
			<path
   class="st0"
   d="m 169.4,394.1 h 5.1 l 1.1,-9.3 h 4.6 v 9.3 h 8.8 v 4.5 h -8.8 v 17.6 c 0,2.8 1.4,4.5 4.3,4.5 1.7,0 3.7,-0.6 4.5,-0.9 v 4.6 c -1.1,0.7 -3.1,1.6 -5.2,1.6 -6,0 -9.4,-3.6 -9.4,-9.6 v -17.6 h -5 z"
   id="path6" />
			<path
   class="st0"
   d="m 208,431.5 c -1.9,4.8 -5,6.3 -8.8,6.3 -1.3,0 -3,-0.2 -4.1,-0.6 v -5 c 0.9,0.3 2.5,0.6 3.4,0.6 2,0 3.2,-0.7 4.1,-2.5 0.6,-1.3 1.6,-4 1.9,-5 0.3,-1.4 -0.6,-2.2 -1.8,-2.1 l -11.2,-29 h 6.5 l 8.7,24.7 h 0.4 l 7.6,-24.7 h 6.1 c -10.6,31.1 -11.4,33.4 -12.8,37.3 z"
   id="path7" />
			<path
   class="st0"
   d="m 230.5,437.2 h -5.8 v -38.5 c 0,-1.3 -0.1,-3.4 -0.1,-4.6 h 5.5 c 0.1,1.2 0.1,3.5 0.1,4.7 h 0.4 c 2.1,-3.2 5.1,-5.2 9.2,-5.2 8.6,0 13.3,7.6 13.3,16.3 0,9 -4.8,16.3 -13,16.3 -5.6,0 -8.3,-3.7 -9.2,-5 h -0.4 c 0,0 0.1,2.2 0.1,4.2 z m 7.9,-39.1 c -4.3,0 -7.6,4.5 -7.9,7.8 v 7.5 c 0.1,3.4 3.2,8.3 8.1,8.3 5.7,0 8.3,-5.4 8.3,-11.8 0,-7.1 -2.8,-11.8 -8.5,-11.8 z"
   id="path8" />
			<path
   class="st0"
   d="m 261.3,410.5 c 0.1,6.5 3.2,11.2 9.1,11.2 3.8,0 6.7,-2.5 7.4,-6 h 5.7 c -0.7,5.1 -5.3,10.5 -13.5,10.5 -8.7,0 -14.6,-6.6 -14.6,-16.8 0,-8.7 5.5,-16.1 14.2,-16.1 11.4,0 14.6,9.9 13.8,17.2 z m 16.4,-4.3 c 0.1,-3 -1.6,-8.6 -7.9,-8.6 -4.2,0 -7.8,3 -8.3,8.7 z"
   id="path9" />
		</g>
		<g
   id="g13">
			<path
   class="st0"
   d="m 25.2,439 h 25 v 5.3 H 31.6 v 14.8 h 17.6 v 5.2 H 31.6 v 19.5 h -6.3 z"
   id="path10" />
			<path
   class="st0"
   d="m 81.7,452.7 v 25.8 c 0,1.6 0.1,3.7 0.4,5.3 h -6 C 76,482.5 76,480.2 76,478.4 h -0.4 c -0.7,1.3 -3.8,5.8 -10.1,5.8 -4.2,0 -10.6,-2.3 -10.6,-11.7 v -19.9 h 6 v 19.9 c 0,4.1 1.9,6.9 5.9,6.9 4.2,0 7.9,-3.7 8.9,-9.1 v -17.7 h 6 z"
   id="path11" />
			<path
   class="st0"
   d="m 87.5,458 c 0,-1.6 -0.1,-3.5 -0.3,-5.3 h 6 v 5.3 h 0.4 c 0.8,-1.4 4.2,-6 10.1,-6 3.7,0 10.3,2 10.3,11.5 v 20.3 h -6 v -20.4 c 0,-4.3 -1.9,-6.8 -5.5,-6.8 -4.3,0 -7.9,4 -9.1,9.1 v 18.1 h -5.9 z"
   id="path12" />
			<path
   class="st0"
   d="m 140.1,439 h 5.8 v 40.2 c 0,1.3 0,3.4 0.1,4.6 h -5.3 c -0.1,-1.3 -0.1,-3.2 -0.1,-4.6 h -0.4 c -2.1,3.2 -5.2,5.1 -9.2,5.1 -8.7,0 -13.5,-7.6 -13.5,-16.3 0,-9 4.8,-16.3 13,-16.3 5.6,0 8.3,3.7 9.2,5 h 0.4 c 0,0 -0.1,-2.1 -0.1,-4.2 z m -7.8,40.9 c 4.3,0 7.6,-4.5 7.8,-7.7 v -7.6 c -0.1,-3.4 -3.2,-8.3 -8.1,-8.3 -5.7,0 -8.3,5.4 -8.3,11.8 0.1,7.1 2.9,11.8 8.6,11.8 z"
   id="path13" />
		</g>
	</g>
	<path
   id="XMLID_19_"
   class="st1"
   d="m 88.453416,28.036332 13.915024,1.743919 16.45824,31.608542 -16.45824,26.558442 c 0,0 -18.783466,4.904774 -25.977134,6.648694 H 60.005728 v 42.798691 l 13.261055,4.68679 -0.326985,4.57778 -23.579246,-0.32698 -23.651909,0.32698 L 25.2,142.08141 38.57005,137.39462 V 37.191909 L 25.2,32.577789 25.708643,28 Z M 60.005728,85.476683 73.702763,88.092562 94.847788,73.341909 101.38749,61.388793 94.847788,49.363015 73.702763,35.411658 60.005728,37.228241 Z"
   style="stroke-width:0.363317" />
</g>
<g
   id="Ebene_1"
   style="display:inline">
</g>
</svg>
