<svg width="868" height="868" viewBox="0 0 868 868" fill="none" xmlns="http://www.w3.org/2000/svg">
<g clip-path="url(#clip0_49_2)">
<rect x="-78" y="-78" width="1024" height="1024" fill="#B0FFE3"/>
<circle cx="421" cy="447" r="357" fill="white"/>
<path d="M750.941 167.579C751.002 167.71 750.967 167.81 750.836 167.88C741.378 172.496 732.122 177.281 723.067 182.237C718.522 184.728 714.306 187.731 709.747 190.248C706.542 192.014 703.241 193.937 699.843 196.017C668.384 215.225 638.067 235.967 610.561 259.331C585.98 280.195 562.809 302.108 541.047 325.07C498.164 370.33 461.034 420.039 429.658 474.196C419.14 492.36 409.613 511.498 401.074 531.61C401.014 531.753 400.99 531.909 401.004 532.064C401.018 532.219 401.071 532.368 401.156 532.497C401.242 532.627 401.359 532.734 401.496 532.808C401.633 532.882 401.786 532.921 401.941 532.921L424.679 533C425.196 533 425.511 532.746 425.625 532.24C426.325 529.163 427.372 526.257 428.764 523.521C434.15 512.94 439.023 501.651 444.671 491.451C450.618 480.708 457.098 470.115 464.112 459.669C464.287 459.398 464.344 459.425 464.283 459.748C461.568 472.501 459.287 485.494 457.439 498.727C457.424 498.835 457.434 498.944 457.469 499.047C457.503 499.15 457.56 499.244 457.636 499.321C457.712 499.398 457.805 499.457 457.908 499.493C458.01 499.528 458.12 499.54 458.227 499.527C478.049 497.298 498.672 494.27 517.771 488.265C564.963 473.458 604.409 446.681 636.109 407.933C643.369 399.069 650.532 389.45 657.599 379.075C657.691 378.939 657.746 378.782 657.759 378.618C657.771 378.455 657.741 378.291 657.67 378.143C657.6 377.995 657.493 377.867 657.358 377.773C657.223 377.679 657.067 377.622 656.903 377.607C635.877 376.007 615.741 374.171 596.493 372.1C595.521 371.995 595.459 371.706 596.309 371.234C628.517 353.298 664.732 334.117 699.856 317.085C700.767 316.64 701.455 316.041 701.919 315.289C712.611 298.009 724.074 280.728 736.308 263.448L744 250L757.587 222.37C769.908 195.584 783.412 168.523 794.774 143.284C797.598 137.004 800.908 131.09 803.733 124.876C804.249 123.739 804.017 122.782 803.036 122.004L801.158 120.497C800.857 120.256 800.499 120.096 800.117 120.032C799.736 119.967 799.343 120.001 798.978 120.13C776.025 128.258 753.021 136.387 729.963 144.516C721.863 147.375 713.64 150.381 705.294 153.537C694.234 157.715 683.227 161.976 672.272 166.32C631.595 182.447 593.66 202.105 558.465 225.294C529.672 244.262 502.337 267.215 476.46 294.154C466.621 304.381 458.332 315.224 450.083 326.316C439.417 340.668 429.938 356.331 421.645 373.306C406.526 404.275 401.758 438.56 406.276 473.187C406.539 475.171 407.038 477.107 407.774 478.995C407.807 479.085 407.863 479.164 407.936 479.225C408.009 479.287 408.097 479.328 408.191 479.345C408.285 479.362 408.382 479.355 408.473 479.323C408.563 479.292 408.643 479.237 408.706 479.166C409.582 478.195 410.331 477.081 410.952 475.822C415.664 466.312 420.147 458.004 424.403 450.898C467.164 379.372 521.195 316.469 586.496 262.189C592.723 257.014 599.522 251.774 606.896 246.469C629.358 230.303 651.688 215.474 675.661 202.73C700.25 189.662 725.304 177.928 750.823 167.526C750.875 167.5 750.914 167.513 750.941 167.566V167.579Z" fill="white"/>
<path d="M715.472 205.519C715.572 205.465 715.599 205.389 715.552 205.289V205.279C715.532 205.239 715.502 205.229 715.462 205.249C696.036 213.182 676.962 222.132 658.242 232.099C639.992 241.819 622.992 253.129 605.892 265.459C600.279 269.505 595.102 273.502 590.362 277.449C540.649 318.849 499.516 366.825 466.962 421.379C463.722 426.799 460.309 433.135 456.722 440.389C456.249 441.349 455.679 442.199 455.012 442.939C454.964 442.994 454.903 443.035 454.834 443.059C454.766 443.083 454.692 443.089 454.62 443.076C454.549 443.063 454.482 443.031 454.426 442.984C454.37 442.938 454.328 442.877 454.302 442.809C453.742 441.369 453.362 439.892 453.162 438.379C449.722 411.969 453.352 385.819 464.862 362.199C471.176 349.252 478.392 337.305 486.512 326.359C492.792 317.899 499.102 309.629 506.592 301.829C526.292 281.282 547.102 263.775 569.022 249.309C595.816 231.622 624.696 216.629 655.662 204.329C664.002 201.015 672.382 197.765 680.802 194.579C687.156 192.172 693.416 189.879 699.582 187.699C717.136 181.499 734.649 175.299 752.122 169.099C752.401 169.001 752.699 168.975 752.99 169.024C753.28 169.073 753.553 169.195 753.782 169.379L755.212 170.529C755.959 171.122 756.136 171.852 755.742 172.719C753.592 177.459 751.072 181.969 748.922 186.759C740.272 206.009 729.992 226.649 720.612 247.079C719.919 248.585 718.656 249.725 716.822 250.499C711.056 252.912 705.236 255.169 699.362 257.269C686.082 262.022 674.239 266.705 663.832 271.319C663.066 271.659 663.099 271.892 663.932 272.019C677.292 274.025 690.672 275.859 704.072 277.519C704.306 277.545 704.449 277.709 704.502 278.009C704.515 278.079 704.513 278.15 704.498 278.219C704.482 278.287 704.453 278.352 704.412 278.409C695.099 291.589 686.372 304.769 678.232 317.949C677.879 318.522 677.356 318.979 676.662 319.319C649.922 332.309 622.352 346.939 597.832 360.619C597.186 360.979 597.232 361.199 597.972 361.279C612.626 362.859 627.956 364.259 643.962 365.479C644.087 365.49 644.206 365.534 644.309 365.606C644.411 365.678 644.493 365.775 644.546 365.888C644.6 366.001 644.623 366.126 644.614 366.25C644.604 366.375 644.562 366.495 644.492 366.599C639.112 374.512 633.659 381.849 628.132 388.609C603.999 418.162 573.969 438.585 538.042 449.879C523.502 454.459 507.802 456.769 492.712 458.469C492.63 458.479 492.547 458.47 492.469 458.442C492.391 458.415 492.32 458.37 492.262 458.311C492.204 458.252 492.161 458.181 492.135 458.103C492.109 458.024 492.101 457.941 492.112 457.859C493.519 447.765 495.256 437.855 497.322 428.129C497.369 427.882 497.326 427.862 497.192 428.069C491.852 436.035 486.919 444.115 482.392 452.309C478.092 460.089 474.382 468.699 470.282 476.769C469.222 478.855 468.426 481.072 467.892 483.419C467.806 483.805 467.566 483.999 467.172 483.999L449.862 483.939C449.744 483.938 449.627 483.908 449.523 483.852C449.419 483.796 449.33 483.714 449.265 483.615C449.199 483.517 449.159 483.403 449.149 483.285C449.138 483.167 449.156 483.048 449.202 482.939C455.702 467.599 462.956 453.002 470.962 439.149C494.849 397.842 523.116 359.929 555.762 325.409C572.329 307.895 589.969 291.182 608.682 275.269C629.622 257.449 652.702 241.629 676.652 226.979C679.239 225.392 681.752 223.925 684.192 222.579C687.662 220.659 690.872 218.369 694.332 216.469C701.226 212.689 708.272 209.039 715.472 205.519Z" fill="#003447"/>
<path d="M381.392 267.918C387.179 269.625 392.506 269.445 397.372 267.378L397.362 448.558C397.362 448.912 397.182 449.088 396.822 449.088C332.942 448.835 269.199 448.818 205.592 449.038C204.306 449.045 203.189 448.572 202.242 447.618C191.962 437.192 181.782 427.115 171.702 417.388C170.702 416.428 169.802 415.798 168.342 415.808C160.529 415.822 152.702 415.832 144.862 415.838C144.509 415.838 144.216 415.968 143.982 416.228L142.212 418.238C128.562 432.278 106.372 418.198 113.312 399.638C115.892 392.738 121.439 389.078 129.952 388.658C136.786 389.298 141.912 392.692 145.332 398.838C145.612 399.338 146.039 399.588 146.612 399.588L175.222 399.668C175.908 399.668 176.566 399.938 177.052 400.418C188.232 411.468 199.062 422.788 210.892 433.248C211.139 433.468 211.432 433.578 211.772 433.578L288.592 433.678C288.635 433.678 288.677 433.666 288.713 433.642C288.748 433.618 288.776 433.585 288.793 433.546C288.81 433.506 288.816 433.463 288.808 433.421C288.801 433.379 288.782 433.34 288.752 433.308C287.252 431.762 285.819 430.308 284.452 428.948C272.212 416.795 259.369 404.085 245.922 390.818C245.262 390.165 244.476 389.838 243.562 389.838C231.609 389.838 221.716 390.002 185.909 390.062C185.389 390.068 185.129 389.808 185.129 389.282L185.159 375.212C185.159 375.023 185.234 374.843 185.367 374.71C185.5 374.576 185.681 374.502 185.869 374.502L251.582 374.348C251.98 374.349 252.364 374.507 252.652 374.788L310.812 433.148C311.015 433.351 311.256 433.512 311.522 433.622C311.788 433.732 312.074 433.788 312.362 433.788L346.472 433.728C346.602 433.728 346.727 433.677 346.819 433.585C346.911 433.493 346.962 433.368 346.962 433.238L347.062 415.788C347.062 415.706 347.03 415.627 346.972 415.569C346.914 415.511 346.835 415.478 346.752 415.478L320.152 415.418C319.53 415.418 318.934 415.174 318.492 414.738L282.282 379.008C281.916 378.645 281.628 378.211 281.435 377.733C281.243 377.255 281.15 376.743 281.162 376.228L281.692 354.448C281.692 354.335 281.636 354.278 281.522 354.278L173.52 354.298C173.307 354.299 173.098 354.351 172.91 354.45C172.721 354.549 172.56 354.693 172.44 354.868C169.74 358.815 166.277 361.585 162.05 363.178C146.02 367.128 133.1 349.038 143.41 335.488C148.583 328.695 155.28 326.558 163.5 329.078C167.853 330.865 171.09 333.698 173.21 337.578C173.361 337.857 173.584 338.089 173.855 338.251C174.126 338.413 174.435 338.498 174.75 338.498L281.142 338.548C281.171 338.548 281.2 338.542 281.227 338.531C281.253 338.519 281.278 338.502 281.298 338.481C281.318 338.46 281.335 338.434 281.346 338.406C281.357 338.378 281.362 338.349 281.362 338.318L281.652 288.338C281.652 287.958 281.469 287.732 281.102 287.658C271.932 285.858 263.682 278.728 260.882 269.848C256.652 256.478 262.952 243.598 275.042 237.188C287.942 230.358 303.852 235.488 310.892 247.848C313.912 253.148 315.006 259.068 314.172 265.608C312.946 275.195 307.469 282.122 297.742 286.388C297.369 286.555 297.182 286.838 297.182 287.238L297.082 370.768C297.083 371.492 297.37 372.187 297.882 372.698L324.352 399.058C324.444 399.15 324.552 399.223 324.671 399.273C324.789 399.323 324.915 399.348 325.042 399.348H346.692C346.756 399.348 346.819 399.336 346.877 399.311C346.935 399.287 346.988 399.251 347.032 399.207C347.076 399.162 347.11 399.109 347.133 399.05C347.155 398.992 347.165 398.93 347.162 398.868C347.029 394.602 346.962 390.495 346.962 386.548C347.022 335.788 346.959 240.63 346.772 191.55C346.766 189.217 346.726 186.904 346.652 184.61C346.646 184.224 346.482 183.924 346.162 183.71C339.422 179.18 335.812 172.75 336.822 164.56C338.292 152.65 351.082 146.97 361.412 151.5C374.632 157.29 374.902 175.59 363.142 182.71C362.875 182.868 362.653 183.095 362.498 183.366C362.344 183.638 362.263 183.946 362.262 184.26L362.342 432.678C362.342 432.854 362.412 433.023 362.535 433.149C362.659 433.274 362.827 433.346 363.002 433.348L381.612 433.628C381.681 433.628 381.748 433.6 381.796 433.549C381.845 433.499 381.872 433.43 381.872 433.358C382.019 381.345 382.019 329.332 381.872 277.318C381.859 273.552 381.699 270.418 381.392 267.918ZM298.914 260.353C298.608 257.284 297.074 254.464 294.649 252.515C292.225 250.565 289.109 249.644 285.987 249.956C284.442 250.11 282.941 250.562 281.571 251.286C280.2 252.011 278.988 252.993 278.002 254.176C277.016 255.36 276.276 256.722 275.825 258.185C275.374 259.648 275.219 261.184 275.371 262.703C275.677 265.773 277.211 268.592 279.636 270.542C282.06 272.492 285.176 273.413 288.298 273.101C289.843 272.947 291.344 272.494 292.714 271.77C294.085 271.046 295.297 270.064 296.283 268.881C297.269 267.697 298.009 266.335 298.46 264.871C298.911 263.408 299.066 261.873 298.914 260.353Z" fill="#003447"/>
<path d="M425.932 166.999C432.919 170.719 436.509 176.256 436.702 183.609C436.789 186.983 436.112 189.893 434.672 192.339C433.039 195.106 430.899 197.319 428.252 198.979C428.075 199.09 427.928 199.244 427.827 199.428C427.725 199.612 427.672 199.819 427.672 200.029L427.532 492.548C427.532 492.768 427.642 492.878 427.862 492.878C454.009 492.945 482.269 493.032 512.642 493.138C518.602 493.158 523.882 493.838 527.292 499.368C528.826 501.855 529.099 504.308 528.112 506.728C526.272 511.218 521.742 511.838 517.072 511.458C516.626 511.418 516.402 511.622 516.402 512.068L516.412 552.108C516.412 552.192 516.429 552.274 516.461 552.35C516.494 552.427 516.541 552.496 516.601 552.554C516.661 552.612 516.731 552.657 516.809 552.687C516.886 552.717 516.969 552.731 517.052 552.728C524.432 552.518 533.322 551.768 540.152 553.568C554.262 557.268 564.912 568.398 569.012 582.258C570.039 585.732 570.556 590.355 570.562 596.128C570.589 615.682 570.496 630.488 570.282 640.548C570.022 652.888 563.332 665.537 552.722 672.857C546.769 676.957 539.456 679.017 530.782 679.037C498.636 679.097 467.292 679.117 436.752 679.097C436.419 679.097 436.232 679.264 436.192 679.597C435.292 687.357 431.666 692.867 425.312 696.127C418.292 698.74 412.226 698.07 407.112 694.117C401.619 689.87 399.532 684.137 400.852 676.917C402.439 670.764 405.772 666.365 410.852 663.718C411.146 663.565 411.302 663.321 411.322 662.988C411.476 660.548 411.552 658.381 411.552 656.488C411.706 539.981 411.729 407.621 411.622 259.407C411.616 250.901 411.496 211.853 411.262 201.119C411.256 200.919 411.206 200.723 411.116 200.547C411.026 200.371 410.898 200.218 410.742 200.099C409.529 199.193 408.369 198.179 407.262 197.059C399.482 189.186 398.739 180.726 405.032 171.679C411.026 165.939 417.992 164.379 425.932 166.999ZM498.822 510.818C498.822 510.75 498.795 510.683 498.746 510.635C498.697 510.586 498.631 510.558 498.562 510.558H428.022C427.953 510.558 427.887 510.586 427.839 510.635C427.79 510.683 427.762 510.75 427.762 510.818V520.599C427.762 520.667 427.79 520.734 427.839 520.782C427.887 520.831 427.953 520.858 428.022 520.858H498.562C498.631 520.858 498.697 520.831 498.746 520.782C498.795 520.734 498.822 520.667 498.822 520.599V510.818ZM498.903 536.946C498.903 536.875 498.874 536.806 498.824 536.756C498.773 536.705 498.704 536.677 498.633 536.677L428.093 536.8C428.057 536.8 428.022 536.807 427.989 536.821C427.957 536.834 427.927 536.854 427.902 536.879C427.877 536.905 427.857 536.934 427.844 536.967C427.83 537 427.823 537.035 427.823 537.07L427.842 547.63C427.842 547.702 427.87 547.771 427.921 547.821C427.972 547.872 428.04 547.9 428.112 547.9L498.652 547.777C498.687 547.777 498.723 547.77 498.755 547.756C498.788 547.743 498.818 547.723 498.843 547.698C498.868 547.672 498.888 547.643 498.901 547.61C498.915 547.577 498.922 547.542 498.922 547.506L498.903 536.946ZM535.852 598.038C536.806 600.098 537.309 602.288 537.362 604.608C537.522 611.948 537.536 621.522 537.402 633.328C537.289 642.735 532.916 648.765 524.282 651.418C521.052 652.418 517.312 651.868 514.262 653.568C511.102 655.328 509.282 658.148 508.802 662.028C508.79 662.128 508.798 662.229 508.827 662.325C508.857 662.421 508.906 662.51 508.972 662.585C509.038 662.661 509.12 662.722 509.211 662.764C509.303 662.805 509.402 662.827 509.502 662.828C515.189 662.855 521.162 662.901 527.422 662.968C536.372 663.048 542.602 660.708 547.972 653.858C551.979 648.745 553.962 642.955 553.922 636.488C553.836 623.688 553.852 610.932 553.972 598.219C554.006 594.579 553.706 591.272 553.072 588.298C550.642 576.978 539.132 568.078 527.432 568.208C508.219 568.422 489.386 568.345 470.932 567.978C470.539 567.972 470.342 568.168 470.342 568.568C470.402 578.208 475.692 584.368 484.502 586.948C487.256 587.755 489.972 588.188 492.652 588.248C501.086 588.435 509.956 588.415 519.262 588.188C527.176 587.995 532.706 591.278 535.852 598.038Z" fill="#003447"/>
<path d="M240.443 266.958L240.413 303.898C240.413 304 240.433 304.102 240.472 304.196C240.511 304.291 240.569 304.377 240.641 304.45C240.714 304.522 240.8 304.579 240.894 304.619C240.989 304.658 241.09 304.678 241.193 304.678L282.893 304.588C283.386 304.581 283.633 304.825 283.633 305.318L283.653 319.818C283.653 320.158 283.483 320.328 283.143 320.328H224.363C224.043 320.328 223.886 320.171 223.893 319.858C224.219 302.578 224.276 285.585 224.063 268.878C224.053 268.328 223.793 268.018 223.593 267.528C223.626 267.308 223.776 267.271 224.043 267.418C230.223 270.798 234.673 268.738 240.443 266.958Z" fill="#003447"/>
<path d="M169.173 294.428L171.683 290.978C182.933 280.248 202.783 287.508 201.623 304.158C200.333 322.518 174.773 326.888 168.213 308.768C166.466 303.928 166.786 299.148 169.173 294.428Z" fill="#003447"/>
<path d="M318.413 315.563C322.436 317.595 327.303 316.061 329.286 312.137C331.268 308.213 329.614 303.385 325.591 301.353C321.569 299.321 316.701 300.855 314.719 304.779C312.736 308.703 314.391 313.531 318.413 315.563Z" fill="#25A898"/>
<path d="M382.668 268.066C389.622 271.579 398.036 268.927 401.463 262.144C404.889 255.361 402.03 247.014 395.076 243.502C388.122 239.989 379.708 242.641 376.281 249.424C372.855 256.207 375.714 264.554 382.668 268.066Z" fill="#25A898"/>
<path d="M227.319 271.346C233.019 274.225 239.916 272.052 242.724 266.492C245.532 260.932 243.189 254.092 237.489 251.213C231.79 248.334 224.893 250.507 222.085 256.067C219.277 261.626 221.62 268.467 227.319 271.346Z" fill="#25A898"/>
<path d="M150.453 466.298L249.683 466.248C249.916 466.248 250.033 466.365 250.033 466.598L249.923 481.328C249.923 481.458 249.871 481.583 249.779 481.675C249.688 481.766 249.563 481.818 249.433 481.818L158.673 481.768L145.173 481.588C144.826 481.581 144.653 481.408 144.653 481.068L144.593 467.028C144.586 466.675 144.763 466.491 145.123 466.478L150.453 466.298Z" fill="#003447"/>
<path d="M397.333 466.328H268.693C268.389 466.328 268.143 466.574 268.143 466.878V481.198C268.143 481.502 268.389 481.748 268.693 481.748H397.333C397.636 481.748 397.883 481.502 397.883 481.198V466.878C397.883 466.574 397.636 466.328 397.333 466.328Z" fill="#003447"/>
<path d="M368.243 729.02C374.293 738.1 371.733 749.37 362.423 755C354.703 759.68 343.793 756.15 339.183 748.47C336.97 744.79 336.276 740.787 337.103 736.46C338.29 730.667 341.42 726.393 346.493 723.64C346.608 723.576 346.704 723.482 346.77 723.368C346.837 723.253 346.873 723.123 346.873 722.99L347.013 548.609C347.013 548.215 346.82 548.019 346.433 548.019L304.623 547.999C304.13 547.999 303.706 548.175 303.353 548.529L297.883 553.989C297.568 554.309 297.389 554.739 297.383 555.189L297.173 704.4C297.173 704.739 297.26 705.074 297.426 705.371C297.592 705.669 297.832 705.92 298.123 706.1C306.79 711.473 309.576 719.037 306.483 728.79C301.456 738.397 294.1 741.723 284.413 738.77C278.763 737.04 273.713 731.18 272.903 724.97C271.843 716.877 274.596 710.657 281.163 706.31C281.314 706.209 281.437 706.072 281.523 705.911C281.608 705.751 281.653 705.572 281.653 705.39L281.583 639.979C281.716 637.972 281.78 635.912 281.773 633.799C281.673 605.199 281.69 579.205 281.823 555.819C281.833 553.279 281.373 550.309 282.713 548.199C283.353 547.185 284.096 546.229 284.943 545.329C288.723 541.355 292.53 537.415 296.363 533.509C296.915 532.951 297.663 532.635 298.443 532.629L381.333 532.529C381.418 532.529 381.503 532.512 381.582 532.479C381.661 532.446 381.732 532.398 381.793 532.338C381.853 532.278 381.901 532.206 381.934 532.127C381.966 532.048 381.983 531.964 381.983 531.879L381.933 515.589C381.933 515.235 381.76 515.059 381.413 515.059L302.083 514.879C301.063 514.872 300.2 515.235 299.493 515.969C284.646 531.282 269.996 546.282 255.543 560.969C250.67 565.922 245.843 570.985 241.063 576.159C240.763 576.485 240.613 576.872 240.613 577.319L240.583 602.049C240.583 602.462 240.766 602.759 241.133 602.939C252.973 608.759 259.263 621.769 256.323 634.759C248.103 660.149 215.033 663.439 203.573 638.559C198.263 627.049 202.463 613.809 211.953 605.869C215.586 603.069 219.626 601.325 224.073 600.639C224.306 600.599 224.423 600.465 224.423 600.239C224.43 591.032 224.436 581.642 224.443 572.069C224.443 570.569 225.103 569.449 226.143 568.399C239.776 554.505 253.11 540.782 266.143 527.229C269.943 523.279 274.023 519.599 277.873 515.559C278.213 515.199 278.136 515.019 277.643 515.019L182.963 514.989C182.356 514.989 181.84 515.199 181.413 515.619L162.433 533.969L140.833 555.109C139.606 549.235 136.536 544.915 131.623 542.149L158.723 514.339L171.273 501.309C171.668 500.9 172.141 500.576 172.663 500.354C173.186 500.132 173.747 500.018 174.313 500.019L397.143 500.049C397.217 500.049 397.289 500.077 397.341 500.128C397.394 500.178 397.423 500.247 397.423 500.319L397.253 622.079C397.253 622.177 397.214 622.271 397.145 622.34C397.075 622.41 396.981 622.449 396.883 622.449L382.613 622.509C382.3 622.509 382.143 622.352 382.143 622.039L381.963 548.529C381.963 548.175 381.786 547.999 381.433 547.999L362.563 547.859C362.514 547.859 362.466 547.868 362.421 547.887C362.377 547.905 362.336 547.933 362.301 547.967C362.267 548.001 362.24 548.042 362.221 548.087C362.203 548.132 362.193 548.18 362.193 548.229L362.343 722.83C362.343 723.103 362.443 723.34 362.643 723.54L368.243 729.02ZM240.722 625.288C240.38 623.821 239.741 622.438 238.84 621.219C237.939 620 236.795 618.968 235.472 618.182C234.149 617.397 232.673 616.873 231.129 616.64C229.585 616.408 228.003 616.471 226.473 616.827C223.384 617.546 220.695 619.412 218.998 622.016C217.301 624.619 216.735 627.746 217.424 630.709C217.766 632.176 218.405 633.559 219.306 634.778C220.207 635.997 221.351 637.029 222.674 637.815C223.997 638.6 225.473 639.125 227.017 639.357C228.561 639.59 230.143 639.526 231.673 639.17C234.762 638.451 237.451 636.585 239.148 633.981C240.845 631.378 241.411 628.251 240.722 625.288Z" fill="#003447"/>
<path d="M218.522 562.8C224.908 558.732 226.862 550.374 222.885 544.132C218.909 537.891 210.508 536.129 204.122 540.197C197.736 544.265 195.783 552.623 199.759 558.865C203.736 565.107 212.136 566.868 218.522 562.8Z" fill="#003447"/>
<path d="M315.093 584.066C315.041 588.357 318.36 591.877 322.508 591.928C326.655 591.978 330.06 588.541 330.112 584.25C330.165 579.959 326.845 576.439 322.698 576.389C318.55 576.338 315.146 579.775 315.093 584.066Z" fill="#25A898"/>
<path d="M246.967 473.764C246.873 481.496 252.854 487.837 260.326 487.928C267.799 488.019 273.933 481.826 274.027 474.095C274.122 466.364 268.141 460.023 260.668 459.931C253.196 459.84 247.062 466.033 246.967 473.764Z" fill="#25A898"/>
<path d="M376.171 628.999C376.077 636.73 382.058 643.071 389.53 643.163C397.003 643.254 403.137 637.061 403.231 629.329C403.326 621.598 397.345 615.257 389.872 615.166C382.4 615.074 376.266 621.268 376.171 628.999Z" fill="#25A898"/>
<path d="M170.171 382.067C170.077 389.798 176.058 396.14 183.53 396.231C191.003 396.322 197.137 390.129 197.231 382.398C197.326 374.667 191.345 368.325 183.872 368.234C176.4 368.143 170.266 374.336 170.171 382.067Z" fill="#25A898"/>
<path d="M124.064 474.067C123.969 481.798 129.95 488.14 137.423 488.231C144.895 488.322 151.029 482.129 151.124 474.398C151.218 466.667 145.237 460.325 137.765 460.234C130.293 460.143 124.158 466.336 124.064 474.067Z" fill="#25A898"/>
<path d="M124.297 549.037C124.224 554.983 128.824 559.86 134.57 559.93C140.317 560 145.034 555.237 145.107 549.292C145.179 543.346 140.58 538.469 134.833 538.399C129.087 538.329 124.369 543.092 124.297 549.037Z" fill="#25A898"/>
</g>
<defs>
<clipPath id="clip0_49_2">
<rect width="868" height="868" fill="white"/>
</clipPath>
</defs>
</svg>
