<?xml version="1.0" encoding="UTF-8" standalone="no"?>
<svg
   width="300"
   height="300"
   viewBox="0 0 299.99921 300.00001"
   fill="none"
   version="1.1"
   id="svg19"
   sodipodi:docname="spotthebot.svg"
   inkscape:version="1.3.2 (091e20ef0f, 2023-11-25)"
   xmlns:inkscape="http://www.inkscape.org/namespaces/inkscape"
   xmlns:sodipodi="http://sodipodi.sourceforge.net/DTD/sodipodi-0.dtd"
   xmlns="http://www.w3.org/2000/svg"
   xmlns:svg="http://www.w3.org/2000/svg">
  <sodipodi:namedview
     id="namedview19"
     pagecolor="#ffffff"
     bordercolor="#000000"
     borderopacity="0.25"
     inkscape:showpageshadow="2"
     inkscape:pageopacity="0.0"
     inkscape:pagecheckerboard="0"
     inkscape:deskcolor="#d1d1d1"
     inkscape:zoom="0.92741935"
     inkscape:cx="434"
     inkscape:cy="433.46087"
     inkscape:window-width="1920"
     inkscape:window-height="1016"
     inkscape:window-x="1080"
     inkscape:window-y="490"
     inkscape:window-maximized="1"
     inkscape:current-layer="svg19" />
  <g
     clip-path="url(#clip0_49_2)"
     id="g19"
     transform="scale(0.3454392)">
    <rect
       x="-78"
       y="-78"
       width="1024"
       height="1024"
       fill="#b0ffe3"
       id="rect1" />
    <circle
       cx="421"
       cy="447"
       r="357"
       fill="#ffffff"
       id="circle1" />
    <path
       d="m 750.941,167.579 c 0.061,0.131 0.026,0.231 -0.105,0.301 -9.458,4.616 -18.714,9.401 -27.769,14.357 -4.545,2.491 -8.761,5.494 -13.32,8.011 -3.205,1.766 -6.506,3.689 -9.904,5.769 -31.459,19.208 -61.776,39.95 -89.282,63.314 -24.581,20.864 -47.752,42.777 -69.514,65.739 -42.883,45.26 -80.013,94.969 -111.389,149.126 -10.518,18.164 -20.045,37.302 -28.584,57.414 -0.06,0.143 -0.084,0.299 -0.07,0.454 0.014,0.155 0.067,0.304 0.152,0.433 0.086,0.13 0.203,0.237 0.34,0.311 0.137,0.074 0.29,0.113 0.445,0.113 L 424.679,533 c 0.517,0 0.832,-0.254 0.946,-0.76 0.7,-3.077 1.747,-5.983 3.139,-8.719 5.386,-10.581 10.259,-21.87 15.907,-32.07 5.947,-10.743 12.427,-21.336 19.441,-31.782 0.175,-0.271 0.232,-0.244 0.171,0.079 -2.715,12.753 -4.996,25.746 -6.844,38.979 -0.015,0.108 -0.005,0.217 0.03,0.32 0.034,0.103 0.091,0.197 0.167,0.274 0.076,0.077 0.169,0.136 0.272,0.172 0.102,0.035 0.212,0.047 0.319,0.034 19.822,-2.229 40.445,-5.257 59.544,-11.262 47.192,-14.807 86.638,-41.584 118.338,-80.332 7.26,-8.864 14.423,-18.483 21.49,-28.858 0.092,-0.136 0.147,-0.293 0.16,-0.457 0.012,-0.163 -0.018,-0.327 -0.089,-0.475 -0.07,-0.148 -0.177,-0.276 -0.312,-0.37 -0.135,-0.094 -0.291,-0.151 -0.455,-0.166 -21.026,-1.6 -41.162,-3.436 -60.41,-5.507 -0.972,-0.105 -1.034,-0.394 -0.184,-0.866 32.208,-17.936 68.423,-37.117 103.547,-54.149 0.911,-0.445 1.599,-1.044 2.063,-1.796 10.692,-17.28 22.155,-34.561 34.389,-51.841 L 744,250 757.587,222.37 c 12.321,-26.786 25.825,-53.847 37.187,-79.086 2.824,-6.28 6.134,-12.194 8.959,-18.408 0.516,-1.137 0.284,-2.094 -0.697,-2.872 l -1.878,-1.507 c -0.301,-0.241 -0.659,-0.401 -1.041,-0.465 -0.381,-0.065 -0.774,-0.031 -1.139,0.098 -22.953,8.128 -45.957,16.257 -69.015,24.386 -8.1,2.859 -16.323,5.865 -24.669,9.021 -11.06,4.178 -22.067,8.439 -33.022,12.783 -40.677,16.127 -78.612,35.785 -113.807,58.974 -28.793,18.968 -56.128,41.921 -82.005,68.86 -9.839,10.227 -18.128,21.07 -26.377,32.162 -10.666,14.352 -20.145,30.015 -28.438,46.99 -15.119,30.969 -19.887,65.254 -15.369,99.881 0.263,1.984 0.762,3.92 1.498,5.808 0.033,0.09 0.089,0.169 0.162,0.23 0.073,0.062 0.161,0.103 0.255,0.12 0.094,0.017 0.191,0.01 0.282,-0.022 0.09,-0.031 0.17,-0.086 0.233,-0.157 0.876,-0.971 1.625,-2.085 2.246,-3.344 4.712,-9.51 9.195,-17.818 13.451,-24.924 42.761,-71.526 96.792,-134.429 162.093,-188.709 6.227,-5.175 13.026,-10.415 20.4,-15.72 22.462,-16.166 44.792,-30.995 68.765,-43.739 24.589,-13.068 49.643,-24.802 75.162,-35.204 0.052,-0.026 0.091,-0.013 0.118,0.04 z"
       fill="#ffffff"
       id="path1" />
    <path
       d="m 715.472,205.519 c 0.1,-0.054 0.127,-0.13 0.08,-0.23 v -0.01 c -0.02,-0.04 -0.05,-0.05 -0.09,-0.03 -19.426,7.933 -38.5,16.883 -57.22,26.85 -18.25,9.72 -35.25,21.03 -52.35,33.36 -5.613,4.046 -10.79,8.043 -15.53,11.99 -49.713,41.4 -90.846,89.376 -123.4,143.93 -3.24,5.42 -6.653,11.756 -10.24,19.01 -0.473,0.96 -1.043,1.81 -1.71,2.55 -0.048,0.055 -0.109,0.096 -0.178,0.12 -0.068,0.024 -0.142,0.03 -0.214,0.017 -0.071,-0.013 -0.138,-0.045 -0.194,-0.092 -0.056,-0.046 -0.098,-0.107 -0.124,-0.175 -0.56,-1.44 -0.94,-2.917 -1.14,-4.43 -3.44,-26.41 0.19,-52.56 11.7,-76.18 6.314,-12.947 13.53,-24.894 21.65,-35.84 6.28,-8.46 12.59,-16.73 20.08,-24.53 19.7,-20.547 40.51,-38.054 62.43,-52.52 26.794,-17.687 55.674,-32.68 86.64,-44.98 8.34,-3.314 16.72,-6.564 25.14,-9.75 6.354,-2.407 12.614,-4.7 18.78,-6.88 17.554,-6.2 35.067,-12.4 52.54,-18.6 0.279,-0.098 0.577,-0.124 0.868,-0.075 0.29,0.049 0.563,0.171 0.792,0.355 l 1.43,1.15 c 0.747,0.593 0.924,1.323 0.53,2.19 -2.15,4.74 -4.67,9.25 -6.82,14.04 -8.65,19.25 -18.93,39.89 -28.31,60.32 -0.693,1.506 -1.956,2.646 -3.79,3.42 -5.766,2.413 -11.586,4.67 -17.46,6.77 -13.28,4.753 -25.123,9.436 -35.53,14.05 -0.766,0.34 -0.733,0.573 0.1,0.7 13.36,2.006 26.74,3.84 40.14,5.5 0.234,0.026 0.377,0.19 0.43,0.49 0.013,0.07 0.011,0.141 -0.004,0.21 -0.016,0.068 -0.045,0.133 -0.086,0.19 -9.313,13.18 -18.04,26.36 -26.18,39.54 -0.353,0.573 -0.876,1.03 -1.57,1.37 -26.74,12.99 -54.31,27.62 -78.83,41.3 -0.646,0.36 -0.6,0.58 0.14,0.66 14.654,1.58 29.984,2.98 45.99,4.2 0.125,0.011 0.244,0.055 0.347,0.127 0.102,0.072 0.184,0.169 0.237,0.282 0.054,0.113 0.077,0.238 0.068,0.362 -0.01,0.125 -0.052,0.245 -0.122,0.349 -5.38,7.913 -10.833,15.25 -16.36,22.01 -24.133,29.553 -54.163,49.976 -90.09,61.27 -14.54,4.58 -30.24,6.89 -45.33,8.59 -0.082,0.01 -0.165,0.001 -0.243,-0.027 -0.078,-0.027 -0.149,-0.072 -0.207,-0.131 -0.058,-0.059 -0.101,-0.13 -0.127,-0.208 -0.026,-0.079 -0.034,-0.162 -0.023,-0.244 1.407,-10.094 3.144,-20.004 5.21,-29.73 0.047,-0.247 0.004,-0.267 -0.13,-0.06 -5.34,7.966 -10.273,16.046 -14.8,24.24 -4.3,7.78 -8.01,16.39 -12.11,24.46 -1.06,2.086 -1.856,4.303 -2.39,6.65 -0.086,0.386 -0.326,0.58 -0.72,0.58 l -17.31,-0.06 c -0.118,-0.001 -0.235,-0.031 -0.339,-0.087 -0.104,-0.056 -0.193,-0.138 -0.258,-0.237 -0.066,-0.098 -0.106,-0.212 -0.116,-0.33 -0.011,-0.118 0.007,-0.237 0.053,-0.346 6.5,-15.34 13.754,-29.937 21.76,-43.79 23.887,-41.307 52.154,-79.22 84.8,-113.74 16.567,-17.514 34.207,-34.227 52.92,-50.14 20.94,-17.82 44.02,-33.64 67.97,-48.29 2.587,-1.587 5.1,-3.054 7.54,-4.4 3.47,-1.92 6.68,-4.21 10.14,-6.11 6.894,-3.78 13.94,-7.43 21.14,-10.95 z"
       fill="#003447"
       id="path2" />
    <path
       d="m 381.392,267.918 c 5.787,1.707 11.114,1.527 15.98,-0.54 l -0.01,181.18 c 0,0.354 -0.18,0.53 -0.54,0.53 -63.88,-0.253 -127.623,-0.27 -191.23,-0.05 -1.286,0.007 -2.403,-0.466 -3.35,-1.42 -10.28,-10.426 -20.46,-20.503 -30.54,-30.23 -1,-0.96 -1.9,-1.59 -3.36,-1.58 -7.813,0.014 -15.64,0.024 -23.48,0.03 -0.353,0 -0.646,0.13 -0.88,0.39 l -1.77,2.01 c -13.65,14.04 -35.84,-0.04 -28.9,-18.6 2.58,-6.9 8.127,-10.56 16.64,-10.98 6.834,0.64 11.96,4.034 15.38,10.18 0.28,0.5 0.707,0.75 1.28,0.75 l 28.61,0.08 c 0.686,0 1.344,0.27 1.83,0.75 11.18,11.05 22.01,22.37 33.84,32.83 0.247,0.22 0.54,0.33 0.88,0.33 l 76.82,0.1 c 0.043,0 0.085,-0.012 0.121,-0.036 0.035,-0.024 0.063,-0.057 0.08,-0.096 0.017,-0.04 0.023,-0.083 0.015,-0.125 -0.007,-0.042 -0.026,-0.081 -0.056,-0.113 -1.5,-1.546 -2.933,-3 -4.3,-4.36 -12.24,-12.153 -25.083,-24.863 -38.53,-38.13 -0.66,-0.653 -1.446,-0.98 -2.36,-0.98 -11.953,0 -21.846,0.164 -57.653,0.224 -0.52,0.006 -0.78,-0.254 -0.78,-0.78 l 0.03,-14.07 c 0,-0.189 0.075,-0.369 0.208,-0.502 0.133,-0.134 0.314,-0.208 0.502,-0.208 l 65.713,-0.154 c 0.398,10e-4 0.782,0.159 1.07,0.44 l 58.16,58.36 c 0.203,0.203 0.444,0.364 0.71,0.474 0.266,0.11 0.552,0.166 0.84,0.166 l 34.11,-0.06 c 0.13,0 0.255,-0.051 0.347,-0.143 0.092,-0.092 0.143,-0.217 0.143,-0.347 l 0.1,-17.45 c 0,-0.082 -0.032,-0.161 -0.09,-0.219 -0.058,-0.058 -0.137,-0.091 -0.22,-0.091 l -26.6,-0.06 c -0.622,0 -1.218,-0.244 -1.66,-0.68 l -36.21,-35.73 c -0.366,-0.363 -0.654,-0.797 -0.847,-1.275 -0.192,-0.478 -0.285,-0.99 -0.273,-1.505 l 0.53,-21.78 c 0,-0.113 -0.056,-0.17 -0.17,-0.17 l -108.002,0.02 c -0.213,10e-4 -0.422,0.053 -0.61,0.152 -0.189,0.099 -0.35,0.243 -0.47,0.418 -2.7,3.947 -6.163,6.717 -10.39,8.31 -16.03,3.95 -28.95,-14.14 -18.64,-27.69 5.173,-6.793 11.87,-8.93 20.09,-6.41 4.353,1.787 7.59,4.62 9.71,8.5 0.151,0.279 0.374,0.511 0.645,0.673 0.271,0.162 0.58,0.247 0.895,0.247 l 106.392,0.05 c 0.029,0 0.058,-0.006 0.085,-0.017 0.026,-0.012 0.051,-0.029 0.071,-0.05 0.02,-0.021 0.037,-0.047 0.048,-0.075 0.011,-0.028 0.016,-0.057 0.016,-0.088 l 0.29,-49.98 c 0,-0.38 -0.183,-0.606 -0.55,-0.68 -9.17,-1.8 -17.42,-8.93 -20.22,-17.81 -4.23,-13.37 2.07,-26.25 14.16,-32.66 12.9,-6.83 28.81,-1.7 35.85,10.66 3.02,5.3 4.114,11.22 3.28,17.76 -1.226,9.587 -6.703,16.514 -16.43,20.78 -0.373,0.167 -0.56,0.45 -0.56,0.85 l -0.1,83.53 c 0.001,0.724 0.288,1.419 0.8,1.93 l 26.47,26.36 c 0.092,0.092 0.2,0.165 0.319,0.215 0.118,0.05 0.244,0.075 0.371,0.075 h 21.65 c 0.064,0 0.127,-0.012 0.185,-0.037 0.058,-0.024 0.111,-0.06 0.155,-0.104 0.044,-0.045 0.078,-0.098 0.101,-0.157 0.022,-0.058 0.032,-0.12 0.029,-0.182 -0.133,-4.266 -0.2,-8.373 -0.2,-12.32 0.06,-50.76 -0.003,-145.918 -0.19,-194.998 -0.006,-2.333 -0.046,-4.646 -0.12,-6.94 -0.006,-0.386 -0.17,-0.686 -0.49,-0.9 -6.74,-4.53 -10.35,-10.96 -9.34,-19.15 1.47,-11.91 14.26,-17.59 24.59,-13.06 13.22,5.79 13.49,24.09 1.73,31.21 -0.267,0.158 -0.489,0.385 -0.644,0.656 -0.154,0.272 -0.235,0.58 -0.236,0.894 l 0.08,248.418 c 0,0.176 0.07,0.345 0.193,0.471 0.124,0.125 0.292,0.197 0.467,0.199 l 18.61,0.28 c 0.069,0 0.136,-0.028 0.184,-0.079 0.049,-0.05 0.076,-0.119 0.076,-0.191 0.147,-52.013 0.147,-104.026 0,-156.04 -0.013,-3.766 -0.173,-6.9 -0.48,-9.4 z m -82.478,-7.565 c -0.306,-3.069 -1.84,-5.889 -4.265,-7.838 -2.424,-1.95 -5.54,-2.871 -8.662,-2.559 -1.545,0.154 -3.046,0.606 -4.416,1.33 -1.371,0.725 -2.583,1.707 -3.569,2.89 -0.986,1.184 -1.726,2.546 -2.177,4.009 -0.451,1.463 -0.606,2.999 -0.454,4.518 0.306,3.07 1.84,5.889 4.265,7.839 2.424,1.95 5.54,2.871 8.662,2.559 1.545,-0.154 3.046,-0.607 4.416,-1.331 1.371,-0.724 2.583,-1.706 3.569,-2.889 0.986,-1.184 1.726,-2.546 2.177,-4.01 0.451,-1.463 0.606,-2.998 0.454,-4.518 z"
       fill="#003447"
       id="path3" />
    <path
       d="m 425.932,166.999 c 6.987,3.72 10.577,9.257 10.77,16.61 0.087,3.374 -0.59,6.284 -2.03,8.73 -1.633,2.767 -3.773,4.98 -6.42,6.64 -0.177,0.111 -0.324,0.265 -0.425,0.449 -0.102,0.184 -0.155,0.391 -0.155,0.601 l -0.14,292.519 c 0,0.22 0.11,0.33 0.33,0.33 26.147,0.067 54.407,0.154 84.78,0.26 5.96,0.02 11.24,0.7 14.65,6.23 1.534,2.487 1.807,4.94 0.82,7.36 -1.84,4.49 -6.37,5.11 -11.04,4.73 -0.446,-0.04 -0.67,0.164 -0.67,0.61 l 0.01,40.04 c 0,0.084 0.017,0.166 0.049,0.242 0.033,0.077 0.08,0.146 0.14,0.204 0.06,0.058 0.13,0.103 0.208,0.133 0.077,0.03 0.16,0.044 0.243,0.041 7.38,-0.21 16.27,-0.96 23.1,0.84 14.11,3.7 24.76,14.83 28.86,28.69 1.027,3.474 1.544,8.097 1.55,13.87 0.027,19.554 -0.066,34.36 -0.28,44.42 -0.26,12.34 -6.95,24.989 -17.56,32.309 -5.953,4.1 -13.266,6.16 -21.94,6.18 -32.146,0.06 -63.49,0.08 -94.03,0.06 -0.333,0 -0.52,0.167 -0.56,0.5 -0.9,7.76 -4.526,13.27 -10.88,16.53 -7.02,2.613 -13.086,1.943 -18.2,-2.01 -5.493,-4.247 -7.58,-9.98 -6.26,-17.2 1.587,-6.153 4.92,-10.552 10,-13.199 0.294,-0.153 0.45,-0.397 0.47,-0.73 0.154,-2.44 0.23,-4.607 0.23,-6.5 0.154,-116.507 0.177,-248.867 0.07,-397.081 -0.006,-8.506 -0.126,-47.554 -0.36,-58.288 -0.006,-0.2 -0.056,-0.396 -0.146,-0.572 -0.09,-0.176 -0.218,-0.329 -0.374,-0.448 -1.213,-0.906 -2.373,-1.92 -3.48,-3.04 -7.78,-7.873 -8.523,-16.333 -2.23,-25.38 5.994,-5.74 12.96,-7.3 20.9,-4.68 z m 72.89,343.819 c 0,-0.068 -0.027,-0.135 -0.076,-0.183 -0.049,-0.049 -0.115,-0.077 -0.184,-0.077 h -70.54 c -0.069,0 -0.135,0.028 -0.183,0.077 -0.049,0.048 -0.077,0.115 -0.077,0.183 v 9.781 c 0,0.068 0.028,0.135 0.077,0.183 0.048,0.049 0.114,0.076 0.183,0.076 h 70.54 c 0.069,0 0.135,-0.027 0.184,-0.076 0.049,-0.048 0.076,-0.115 0.076,-0.183 z m 0.081,26.128 c 0,-0.071 -0.029,-0.14 -0.079,-0.19 -0.051,-0.051 -0.12,-0.079 -0.191,-0.079 l -70.54,0.123 c -0.036,0 -0.071,0.007 -0.104,0.021 -0.032,0.013 -0.062,0.033 -0.087,0.058 -0.025,0.026 -0.045,0.055 -0.058,0.088 -0.014,0.033 -0.021,0.068 -0.021,0.103 l 0.019,10.56 c 0,0.072 0.028,0.141 0.079,0.191 0.051,0.051 0.119,0.079 0.191,0.079 l 70.54,-0.123 c 0.035,0 0.071,-0.007 0.103,-0.021 0.033,-0.013 0.063,-0.033 0.088,-0.058 0.025,-0.026 0.045,-0.055 0.058,-0.088 0.014,-0.033 0.021,-0.068 0.021,-0.104 z m 36.949,61.092 c 0.954,2.06 1.457,4.25 1.51,6.57 0.16,7.34 0.174,16.914 0.04,28.72 -0.113,9.407 -4.486,15.437 -13.12,18.09 -3.23,1 -6.97,0.45 -10.02,2.15 -3.16,1.76 -4.98,4.58 -5.46,8.46 -0.012,0.1 -0.004,0.201 0.025,0.297 0.03,0.096 0.079,0.185 0.145,0.26 0.066,0.076 0.148,0.137 0.239,0.179 0.092,0.041 0.191,0.063 0.291,0.064 5.687,0.027 11.66,0.073 17.92,0.14 8.95,0.08 15.18,-2.26 20.55,-9.11 4.007,-5.113 5.99,-10.903 5.95,-17.37 -0.086,-12.8 -0.07,-25.556 0.05,-38.269 0.034,-3.64 -0.266,-6.947 -0.9,-9.921 -2.43,-11.32 -13.94,-20.22 -25.64,-20.09 -19.213,0.214 -38.046,0.137 -56.5,-0.23 -0.393,-0.006 -0.59,0.19 -0.59,0.59 0.06,9.64 5.35,15.8 14.16,18.38 2.754,0.807 5.47,1.24 8.15,1.3 8.434,0.187 17.304,0.167 26.61,-0.06 7.914,-0.193 13.444,3.09 16.59,9.85 z"
       fill="#003447"
       id="path4" />
    <path
       d="m 240.443,266.958 -0.03,36.94 c 0,0.102 0.02,0.204 0.059,0.298 0.039,0.095 0.097,0.181 0.169,0.254 0.073,0.072 0.159,0.129 0.253,0.169 0.095,0.039 0.196,0.059 0.299,0.059 l 41.7,-0.09 c 0.493,-0.007 0.74,0.237 0.74,0.73 l 0.02,14.5 c 0,0.34 -0.17,0.51 -0.51,0.51 h -58.78 c -0.32,0 -0.477,-0.157 -0.47,-0.47 0.326,-17.28 0.383,-34.273 0.17,-50.98 -0.01,-0.55 -0.27,-0.86 -0.47,-1.35 0.033,-0.22 0.183,-0.257 0.45,-0.11 6.18,3.38 10.63,1.32 16.4,-0.46 z"
       fill="#003447"
       id="path5" />
    <path
       d="m 169.173,294.428 2.51,-3.45 c 11.25,-10.73 31.1,-3.47 29.94,13.18 -1.29,18.36 -26.85,22.73 -33.41,4.61 -1.747,-4.84 -1.427,-9.62 0.96,-14.34 z"
       fill="#003447"
       id="path6" />
    <path
       d="m 318.413,315.563 c 4.023,2.032 8.89,0.498 10.873,-3.426 1.982,-3.924 0.328,-8.752 -3.695,-10.784 -4.022,-2.032 -8.89,-0.498 -10.872,3.426 -1.983,3.924 -0.328,8.752 3.694,10.784 z"
       fill="#25a898"
       id="path7" />
    <path
       d="m 382.668,268.066 c 6.954,3.513 15.368,0.861 18.795,-5.922 3.426,-6.783 0.567,-15.13 -6.387,-18.642 -6.954,-3.513 -15.368,-0.861 -18.795,5.922 -3.426,6.783 -0.567,15.13 6.387,18.642 z"
       fill="#25a898"
       id="path8" />
    <path
       d="m 227.319,271.346 c 5.7,2.879 12.597,0.706 15.405,-4.854 2.808,-5.56 0.465,-12.4 -5.235,-15.279 -5.699,-2.879 -12.596,-0.706 -15.404,4.854 -2.808,5.559 -0.465,12.4 5.234,15.279 z"
       fill="#25a898"
       id="path9" />
    <path
       d="m 150.453,466.298 99.23,-0.05 c 0.233,0 0.35,0.117 0.35,0.35 l -0.11,14.73 c 0,0.13 -0.052,0.255 -0.144,0.347 -0.091,0.091 -0.216,0.143 -0.346,0.143 l -90.76,-0.05 -13.5,-0.18 c -0.347,-0.007 -0.52,-0.18 -0.52,-0.52 l -0.06,-14.04 c -0.007,-0.353 0.17,-0.537 0.53,-0.55 z"
       fill="#003447"
       id="path10" />
    <path
       d="m 397.333,466.328 h -128.64 c -0.304,0 -0.55,0.246 -0.55,0.55 v 14.32 c 0,0.304 0.246,0.55 0.55,0.55 h 128.64 c 0.303,0 0.55,-0.246 0.55,-0.55 v -14.32 c 0,-0.304 -0.247,-0.55 -0.55,-0.55 z"
       fill="#003447"
       id="path11" />
    <path
       d="m 368.243,729.02 c 6.05,9.08 3.49,20.35 -5.82,25.98 -7.72,4.68 -18.63,1.15 -23.24,-6.53 -2.213,-3.68 -2.907,-7.683 -2.08,-12.01 1.187,-5.793 4.317,-10.067 9.39,-12.82 0.115,-0.064 0.211,-0.158 0.277,-0.272 0.067,-0.115 0.103,-0.245 0.103,-0.378 l 0.14,-174.381 c 0,-0.394 -0.193,-0.59 -0.58,-0.59 l -41.81,-0.02 c -0.493,0 -0.917,0.176 -1.27,0.53 l -5.47,5.46 c -0.315,0.32 -0.494,0.75 -0.5,1.2 l -0.21,149.211 c 0,0.339 0.087,0.674 0.253,0.971 0.166,0.298 0.406,0.549 0.697,0.729 8.667,5.373 11.453,12.937 8.36,22.69 -5.027,9.607 -12.383,12.933 -22.07,9.98 -5.65,-1.73 -10.7,-7.59 -11.51,-13.8 -1.06,-8.093 1.693,-14.313 8.26,-18.66 0.151,-0.101 0.274,-0.238 0.36,-0.399 0.085,-0.16 0.13,-0.339 0.13,-0.521 l -0.07,-65.411 c 0.133,-2.007 0.197,-4.067 0.19,-6.18 -0.1,-28.6 -0.083,-54.594 0.05,-77.98 0.01,-2.54 -0.45,-5.51 0.89,-7.62 0.64,-1.014 1.383,-1.97 2.23,-2.87 3.78,-3.974 7.587,-7.914 11.42,-11.82 0.552,-0.558 1.3,-0.874 2.08,-0.88 l 82.89,-0.1 c 0.085,0 0.17,-0.017 0.249,-0.05 0.079,-0.033 0.15,-0.081 0.211,-0.141 0.06,-0.06 0.108,-0.132 0.141,-0.211 0.032,-0.079 0.049,-0.163 0.049,-0.248 l -0.05,-16.29 c 0,-0.354 -0.173,-0.53 -0.52,-0.53 l -79.33,-0.18 c -1.02,-0.007 -1.883,0.356 -2.59,1.09 -14.847,15.313 -29.497,30.313 -43.95,45 -4.873,4.953 -9.7,10.016 -14.48,15.19 -0.3,0.326 -0.45,0.713 -0.45,1.16 l -0.03,24.73 c 0,0.413 0.183,0.71 0.55,0.89 11.84,5.82 18.13,18.83 15.19,31.82 -8.22,25.39 -41.29,28.68 -52.75,3.8 -5.31,-11.51 -1.11,-24.75 8.38,-32.69 3.633,-2.8 7.673,-4.544 12.12,-5.23 0.233,-0.04 0.35,-0.174 0.35,-0.4 0.007,-9.207 0.013,-18.597 0.02,-28.17 0,-1.5 0.66,-2.62 1.7,-3.67 13.633,-13.894 26.967,-27.617 40,-41.17 3.8,-3.95 7.88,-7.63 11.73,-11.67 0.34,-0.36 0.263,-0.54 -0.23,-0.54 l -94.68,-0.03 c -0.607,0 -1.123,0.21 -1.55,0.63 l -18.98,18.35 -21.6,21.14 c -1.227,-5.874 -4.297,-10.194 -9.21,-12.96 l 27.1,-27.81 12.55,-13.03 c 0.395,-0.409 0.868,-0.733 1.39,-0.955 0.523,-0.222 1.084,-0.336 1.65,-0.335 l 222.83,0.03 c 0.074,0 0.146,0.028 0.198,0.079 0.053,0.05 0.082,0.119 0.082,0.191 l -0.17,121.76 c 0,0.098 -0.039,0.192 -0.108,0.261 -0.07,0.07 -0.164,0.109 -0.262,0.109 l -14.27,0.06 c -0.313,0 -0.47,-0.157 -0.47,-0.47 l -0.18,-73.51 c 0,-0.354 -0.177,-0.53 -0.53,-0.53 l -18.87,-0.14 c -0.049,0 -0.097,0.009 -0.142,0.028 -0.044,0.018 -0.085,0.046 -0.12,0.08 -0.034,0.034 -0.061,0.075 -0.08,0.12 -0.018,0.045 -0.028,0.093 -0.028,0.142 l 0.15,174.601 c 0,0.273 0.1,0.51 0.3,0.71 z M 240.722,625.288 c -0.342,-1.467 -0.981,-2.85 -1.882,-4.069 -0.901,-1.219 -2.045,-2.251 -3.368,-3.037 -1.323,-0.785 -2.799,-1.309 -4.343,-1.542 -1.544,-0.232 -3.126,-0.169 -4.656,0.187 -3.089,0.719 -5.778,2.585 -7.475,5.189 -1.697,2.603 -2.263,5.73 -1.574,8.693 0.342,1.467 0.981,2.85 1.882,4.069 0.901,1.219 2.045,2.251 3.368,3.037 1.323,0.785 2.799,1.31 4.343,1.542 1.544,0.233 3.126,0.169 4.656,-0.187 3.089,-0.719 5.778,-2.585 7.475,-5.189 1.697,-2.603 2.263,-5.73 1.574,-8.693 z"
       fill="#003447"
       id="path12" />
    <path
       d="m 218.522,562.8 c 6.386,-4.068 8.34,-12.426 4.363,-18.668 -3.976,-6.241 -12.377,-8.003 -18.763,-3.935 -6.386,4.068 -8.339,12.426 -4.363,18.668 3.977,6.242 12.377,8.003 18.763,3.935 z"
       fill="#003447"
       id="path13" />
    <path
       d="m 315.093,584.066 c -0.052,4.291 3.267,7.811 7.415,7.862 4.147,0.05 7.552,-3.387 7.604,-7.678 0.053,-4.291 -3.267,-7.811 -7.414,-7.861 -4.148,-0.051 -7.552,3.386 -7.605,7.677 z"
       fill="#25a898"
       id="path14" />
    <path
       d="m 246.967,473.764 c -0.094,7.732 5.887,14.073 13.359,14.164 7.473,0.091 13.607,-6.102 13.701,-13.833 0.095,-7.731 -5.886,-14.072 -13.359,-14.164 -7.472,-0.091 -13.606,6.102 -13.701,13.833 z"
       fill="#25a898"
       id="path15" />
    <path
       d="m 376.171,628.999 c -0.094,7.731 5.887,14.072 13.359,14.164 7.473,0.091 13.607,-6.102 13.701,-13.834 0.095,-7.731 -5.886,-14.072 -13.359,-14.163 -7.472,-0.092 -13.606,6.102 -13.701,13.833 z"
       fill="#25a898"
       id="path16" />
    <path
       d="m 170.171,382.067 c -0.094,7.731 5.887,14.073 13.359,14.164 7.473,0.091 13.607,-6.102 13.701,-13.833 0.095,-7.731 -5.886,-14.073 -13.359,-14.164 -7.472,-0.091 -13.606,6.102 -13.701,13.833 z"
       fill="#25a898"
       id="path17" />
    <path
       d="m 124.064,474.067 c -0.095,7.731 5.886,14.073 13.359,14.164 7.472,0.091 13.606,-6.102 13.701,-13.833 0.094,-7.731 -5.887,-14.073 -13.359,-14.164 -7.472,-0.091 -13.607,6.102 -13.701,13.833 z"
       fill="#25a898"
       id="path18" />
    <path
       d="m 124.297,549.037 c -0.073,5.946 4.527,10.823 10.273,10.893 5.747,0.07 10.464,-4.693 10.537,-10.638 0.072,-5.946 -4.527,-10.823 -10.274,-10.893 -5.746,-0.07 -10.464,4.693 -10.536,10.638 z"
       fill="#25a898"
       id="path19" />
  </g>
  <defs
     id="defs19">
    <clipPath
       id="clip0_49_2">
      <rect
         width="868"
         height="868"
         fill="#ffffff"
         id="rect19"
         x="0"
         y="0" />
    </clipPath>
  </defs>
</svg>
